<mxfile host="app.diagrams.net" modified="2023-12-23T01:26:40.367Z" agent="Mozilla/5.0 (Windows NT 10.0; Win64; x64) AppleWebKit/537.36 (KHTML, like Gecko) Chrome/120.0.0.0 Safari/537.36" etag="M1Q4Se55XgUDNFiKZNkN" version="22.1.11" type="device">
  <diagram name="Page-1" id="TjVklAgZkNygQsRRETGH">
    <mxGraphModel dx="1707" dy="434" grid="1" gridSize="10" guides="1" tooltips="1" connect="1" arrows="1" fold="1" page="1" pageScale="1" pageWidth="827" pageHeight="1169" math="0" shadow="0">
      <root>
        <mxCell id="0" />
        <mxCell id="1" parent="0" />
        <mxCell id="ZWHM6CyVMjpsxh_ZRD_X-9" value="machine locale" style="swimlane;whiteSpace=wrap;html=1;" parent="1" vertex="1">
          <mxGeometry x="-60" y="40" width="800" height="340" as="geometry" />
        </mxCell>
        <mxCell id="ZWHM6CyVMjpsxh_ZRD_X-19" value="bridge" style="rounded=0;whiteSpace=wrap;html=1;" parent="ZWHM6CyVMjpsxh_ZRD_X-9" vertex="1">
          <mxGeometry x="200" y="140" width="180" height="120" as="geometry" />
        </mxCell>
        <mxCell id="ZWHM6CyVMjpsxh_ZRD_X-20" value="Page&amp;nbsp; web" style="rounded=0;whiteSpace=wrap;html=1;" parent="ZWHM6CyVMjpsxh_ZRD_X-9" vertex="1">
          <mxGeometry x="450" y="170" width="120" height="60" as="geometry" />
        </mxCell>
        <mxCell id="ZWHM6CyVMjpsxh_ZRD_X-32" value=".1" style="text;html=1;strokeColor=none;fillColor=none;align=center;verticalAlign=middle;whiteSpace=wrap;rounded=0;" parent="ZWHM6CyVMjpsxh_ZRD_X-9" vertex="1">
          <mxGeometry x="220" y="310" width="60" height="30" as="geometry" />
        </mxCell>
        <mxCell id="ZWHM6CyVMjpsxh_ZRD_X-33" value="&lt;b&gt;&lt;font style=&quot;font-size: 18px;&quot;&gt;172.19.0.0/16&lt;/font&gt;&lt;/b&gt;" style="text;html=1;strokeColor=none;fillColor=none;align=center;verticalAlign=middle;whiteSpace=wrap;rounded=0;" parent="ZWHM6CyVMjpsxh_ZRD_X-9" vertex="1">
          <mxGeometry x="220" y="90" width="100" height="30" as="geometry" />
        </mxCell>
        <mxCell id="ZWHM6CyVMjpsxh_ZRD_X-34" value=":5000" style="text;html=1;strokeColor=none;fillColor=none;align=center;verticalAlign=middle;whiteSpace=wrap;rounded=0;" parent="ZWHM6CyVMjpsxh_ZRD_X-9" vertex="1">
          <mxGeometry x="500" y="140" width="60" height="30" as="geometry" />
        </mxCell>
        <mxCell id="ZWHM6CyVMjpsxh_ZRD_X-43" value=".3" style="text;html=1;strokeColor=none;fillColor=none;align=center;verticalAlign=middle;whiteSpace=wrap;rounded=0;" parent="ZWHM6CyVMjpsxh_ZRD_X-9" vertex="1">
          <mxGeometry x="480" y="140" width="60" height="30" as="geometry" />
        </mxCell>
        <mxCell id="pRFV72ju0lPkuy1TKLql-1" value="" style="endArrow=none;html=1;rounded=0;exitX=0.994;exitY=0.367;exitDx=0;exitDy=0;exitPerimeter=0;entryX=0;entryY=0.25;entryDx=0;entryDy=0;" edge="1" parent="ZWHM6CyVMjpsxh_ZRD_X-9" source="ZWHM6CyVMjpsxh_ZRD_X-19" target="ZWHM6CyVMjpsxh_ZRD_X-20">
          <mxGeometry width="50" height="50" relative="1" as="geometry">
            <mxPoint x="390" y="190" as="sourcePoint" />
            <mxPoint x="440" y="180" as="targetPoint" />
          </mxGeometry>
        </mxCell>
        <mxCell id="pRFV72ju0lPkuy1TKLql-3" value="" style="endArrow=none;html=1;rounded=0;" edge="1" parent="ZWHM6CyVMjpsxh_ZRD_X-9" source="ZWHM6CyVMjpsxh_ZRD_X-19">
          <mxGeometry width="50" height="50" relative="1" as="geometry">
            <mxPoint x="440" y="210" as="sourcePoint" />
            <mxPoint x="450.71067811865476" y="200" as="targetPoint" />
          </mxGeometry>
        </mxCell>
        <mxCell id="pRFV72ju0lPkuy1TKLql-4" value="MongoDB" style="rounded=0;whiteSpace=wrap;html=1;" vertex="1" parent="ZWHM6CyVMjpsxh_ZRD_X-9">
          <mxGeometry x="20" y="155" width="120" height="60" as="geometry" />
        </mxCell>
        <mxCell id="pRFV72ju0lPkuy1TKLql-6" value="" style="endArrow=none;html=1;rounded=0;exitX=1.008;exitY=0.367;exitDx=0;exitDy=0;exitPerimeter=0;entryX=-0.017;entryY=0.308;entryDx=0;entryDy=0;entryPerimeter=0;" edge="1" parent="ZWHM6CyVMjpsxh_ZRD_X-9" source="pRFV72ju0lPkuy1TKLql-4" target="ZWHM6CyVMjpsxh_ZRD_X-19">
          <mxGeometry width="50" height="50" relative="1" as="geometry">
            <mxPoint x="150" y="210" as="sourcePoint" />
            <mxPoint x="200" y="160" as="targetPoint" />
          </mxGeometry>
        </mxCell>
        <mxCell id="pRFV72ju0lPkuy1TKLql-7" value="" style="endArrow=none;html=1;rounded=0;entryX=0;entryY=0.5;entryDx=0;entryDy=0;exitX=1;exitY=0.75;exitDx=0;exitDy=0;" edge="1" parent="ZWHM6CyVMjpsxh_ZRD_X-9" source="pRFV72ju0lPkuy1TKLql-4" target="ZWHM6CyVMjpsxh_ZRD_X-19">
          <mxGeometry width="50" height="50" relative="1" as="geometry">
            <mxPoint x="140" y="250" as="sourcePoint" />
            <mxPoint x="190" y="200" as="targetPoint" />
          </mxGeometry>
        </mxCell>
        <mxCell id="pRFV72ju0lPkuy1TKLql-9" value=".2:27017" style="text;html=1;strokeColor=none;fillColor=none;align=center;verticalAlign=middle;whiteSpace=wrap;rounded=0;" vertex="1" parent="ZWHM6CyVMjpsxh_ZRD_X-9">
          <mxGeometry x="40" y="125" width="60" height="30" as="geometry" />
        </mxCell>
        <mxCell id="ZWHM6CyVMjpsxh_ZRD_X-22" value="" style="endArrow=none;html=1;rounded=0;" parent="1" edge="1">
          <mxGeometry width="50" height="50" relative="1" as="geometry">
            <mxPoint x="230" y="380" as="sourcePoint" />
            <mxPoint x="230" y="340" as="targetPoint" />
            <Array as="points">
              <mxPoint x="230" y="340" />
              <mxPoint x="230" y="300" />
            </Array>
          </mxGeometry>
        </mxCell>
        <mxCell id="ZWHM6CyVMjpsxh_ZRD_X-30" value="http:192.168.110.226:5000" style="text;html=1;strokeColor=none;fillColor=none;align=center;verticalAlign=middle;whiteSpace=wrap;rounded=0;" parent="1" vertex="1">
          <mxGeometry x="470" y="510" width="275" height="45" as="geometry" />
        </mxCell>
        <mxCell id="ZWHM6CyVMjpsxh_ZRD_X-35" value="" style="endArrow=none;html=1;rounded=0;" parent="1" edge="1">
          <mxGeometry width="50" height="50" relative="1" as="geometry">
            <mxPoint x="240" y="420" as="sourcePoint" />
            <mxPoint x="690" y="420" as="targetPoint" />
          </mxGeometry>
        </mxCell>
        <mxCell id="ZWHM6CyVMjpsxh_ZRD_X-36" value="" style="endArrow=none;html=1;rounded=0;" parent="1" edge="1">
          <mxGeometry width="50" height="50" relative="1" as="geometry">
            <mxPoint x="120" y="450" as="sourcePoint" />
            <mxPoint x="589" y="450" as="targetPoint" />
          </mxGeometry>
        </mxCell>
        <mxCell id="ZWHM6CyVMjpsxh_ZRD_X-37" value="LAN 192.168.96.0/24" style="text;html=1;strokeColor=none;fillColor=none;align=center;verticalAlign=middle;whiteSpace=wrap;rounded=0;" parent="1" vertex="1">
          <mxGeometry x="300" y="420" width="130" height="30" as="geometry" />
        </mxCell>
        <mxCell id="ZWHM6CyVMjpsxh_ZRD_X-38" value="" style="endArrow=none;html=1;rounded=0;" parent="1" edge="1">
          <mxGeometry width="50" height="50" relative="1" as="geometry">
            <mxPoint x="210" y="420" as="sourcePoint" />
            <mxPoint x="210" y="300" as="targetPoint" />
          </mxGeometry>
        </mxCell>
        <mxCell id="ZWHM6CyVMjpsxh_ZRD_X-39" value="" style="endArrow=none;html=1;rounded=0;" parent="1" edge="1">
          <mxGeometry width="50" height="50" relative="1" as="geometry">
            <mxPoint x="230" y="420" as="sourcePoint" />
            <mxPoint x="230" y="380" as="targetPoint" />
          </mxGeometry>
        </mxCell>
        <mxCell id="ZWHM6CyVMjpsxh_ZRD_X-41" value="" style="endArrow=none;html=1;rounded=0;" parent="1" edge="1">
          <mxGeometry width="50" height="50" relative="1" as="geometry">
            <mxPoint x="120" y="419" as="sourcePoint" />
            <mxPoint x="200" y="419" as="targetPoint" />
          </mxGeometry>
        </mxCell>
        <mxCell id="ZWHM6CyVMjpsxh_ZRD_X-45" value="" style="endArrow=none;html=1;rounded=0;" parent="1" source="ZWHM6CyVMjpsxh_ZRD_X-30" edge="1">
          <mxGeometry width="50" height="50" relative="1" as="geometry">
            <mxPoint x="620" y="520" as="sourcePoint" />
            <mxPoint x="590" y="450" as="targetPoint" />
          </mxGeometry>
        </mxCell>
        <mxCell id="ZWHM6CyVMjpsxh_ZRD_X-46" value="" style="endArrow=none;html=1;rounded=0;exitX=0.527;exitY=0;exitDx=0;exitDy=0;exitPerimeter=0;" parent="1" source="ZWHM6CyVMjpsxh_ZRD_X-30" edge="1">
          <mxGeometry width="50" height="50" relative="1" as="geometry">
            <mxPoint x="620" y="510" as="sourcePoint" />
            <mxPoint x="610" y="460" as="targetPoint" />
            <Array as="points">
              <mxPoint x="608" y="450" />
            </Array>
          </mxGeometry>
        </mxCell>
        <mxCell id="ZWHM6CyVMjpsxh_ZRD_X-47" value="" style="endArrow=none;html=1;rounded=0;" parent="1" edge="1">
          <mxGeometry width="50" height="50" relative="1" as="geometry">
            <mxPoint x="610" y="450" as="sourcePoint" />
            <mxPoint x="700" y="450" as="targetPoint" />
          </mxGeometry>
        </mxCell>
        <mxCell id="ZWHM6CyVMjpsxh_ZRD_X-49" value="interface docker0" style="text;html=1;strokeColor=none;fillColor=none;align=center;verticalAlign=middle;whiteSpace=wrap;rounded=0;" parent="1" vertex="1">
          <mxGeometry x="100" y="380" width="100" height="30" as="geometry" />
        </mxCell>
      </root>
    </mxGraphModel>
  </diagram>
</mxfile>
